<svg width="32" height="32" viewBox="0 0 32 32" fill="none" xmlns="http://www.w3.org/2000/svg">
  <!-- Background with gradient -->
  <rect width="32" height="32" rx="6" fill="url(#gradient)"/>

  <!-- Pill/Capsule design -->
  <g transform="translate(8, 9)">
    <!-- Left half of capsule (darker green) -->
    <path d="M 0 3 Q 0 0 3 0 L 8 0 L 8 14 L 3 14 Q 0 14 0 11 Z" fill="#047857"/>

    <!-- Right half of capsule (lighter green) -->
    <path d="M 8 0 L 13 0 Q 16 0 16 3 L 16 11 Q 16 14 13 14 L 8 14 Z" fill="#10b981"/>

    <!-- White center line -->
    <rect x="7.5" y="0" width="1" height="14" fill="white" opacity="0.3"/>

    <!-- Shine effect -->
    <ellipse cx="5" cy="4" rx="2" ry="3" fill="white" opacity="0.25"/>
    <ellipse cx="11" cy="4" rx="2" ry="3" fill="white" opacity="0.25"/>
  </g>

  <!-- Plus icon overlay (small medical cross) -->
  <g transform="translate(23, 23)">
    <circle cx="0" cy="0" r="4.5" fill="#059669"/>
    <path d="M -2 0 L 2 0 M 0 -2 L 0 2" stroke="white" stroke-width="1.5" stroke-linecap="round"/>
  </g>

  <!-- Gradient definition -->
  <defs>
    <linearGradient id="gradient" x1="0%" y1="0%" x2="100%" y2="100%">
      <stop offset="0%" style="stop-color:#059669;stop-opacity:1" />
      <stop offset="100%" style="stop-color:#047857;stop-opacity:1" />
    </linearGradient>
  </defs>
</svg>
